<?xml version="1.0" encoding="UTF-8" standalone="no"?>
<!DOCTYPE svg PUBLIC "-//W3C//DTD SVG 1.1//EN"
 "http://www.w3.org/Graphics/SVG/1.1/DTD/svg11.dtd">
<!-- Generated by graphviz version 2.38.0 (20140413.2041)
 -->
<!-- Title: dfd2 Pages: 1 -->
<svg width="500pt" height="70pt"
 viewBox="0.00 0.00 500.00 70.00" xmlns="http://www.w3.org/2000/svg" xmlns:xlink="http://www.w3.org/1999/xlink">
<g id="graph0" class="graph" transform="scale(1 1) rotate(0) translate(4 66)">
<title>dfd2</title>
<polygon fill="white" stroke="none" points="-4,4 -4,-66 496,-66 496,4 -4,4"/>
<!-- service -->
<g id="node1" class="node"><title>service</title>
<path fill="none" stroke="black" d="M12,-0.5C12,-0.5 104,-0.5 104,-0.5 110,-0.5 116,-6.5 116,-12.5 116,-12.5 116,-49.5 116,-49.5 116,-55.5 110,-61.5 104,-61.5 104,-61.5 12,-61.5 12,-61.5 6,-61.5 0,-55.5 0,-49.5 0,-49.5 0,-12.5 0,-12.5 0,-6.5 6,-0.5 12,-0.5"/>
<text text-anchor="middle" x="58" y="-46.3" font-family="Times,serif" font-size="14.00">Service: service_a</text>
<polyline fill="none" stroke="black" points="0,-38.5 116,-38.5 "/>
<text text-anchor="middle" x="58" y="-23.3" font-family="Times,serif" font-size="14.00">&#45;&#45;stereotype&#45;&#45;</text>
<text text-anchor="middle" x="58" y="-8.3" font-family="Times,serif" font-size="14.00">key = value</text>
</g>
<!-- external_entity -->
<g id="node2" class="node"><title>external_entity</title>
<polygon fill="none" stroke="black" points="134,-0.5 134,-61.5 334,-61.5 334,-0.5 134,-0.5"/>
<text text-anchor="middle" x="234" y="-46.3" font-family="Times,serif" font-size="14.00">External Entity: external_entity_a</text>
<polyline fill="none" stroke="black" points="134,-38.5 334,-38.5 "/>
<text text-anchor="middle" x="234" y="-23.3" font-family="Times,serif" font-size="14.00">&#45;&#45;stereotype&#45;&#45;</text>
<text text-anchor="middle" x="234" y="-8.3" font-family="Times,serif" font-size="14.00">key = value</text>
</g>
<!-- database -->
<g id="node3" class="node"><title>database</title>
<polygon fill="none" stroke="black" points="352,-0.5 352,-61.5 492,-61.5 492,-0.5 352,-0.5"/>
<text text-anchor="middle" x="362" y="-27.3" font-family="Times,serif" font-size="14.00"> </text>
<polyline fill="none" stroke="black" points="372,-0.5 372,-61.5 "/>
<text text-anchor="middle" x="432" y="-46.3" font-family="Times,serif" font-size="14.00">Service database_a</text>
<polyline fill="none" stroke="black" points="372,-38.5 492,-38.5 "/>
<text text-anchor="middle" x="432" y="-23.3" font-family="Times,serif" font-size="14.00">&#45;&#45;stereotype&#45;&#45;</text>
<text text-anchor="middle" x="432" y="-8.3" font-family="Times,serif" font-size="14.00">key = value</text>
</g>
</g>
</svg>
