<?xml version="1.0" encoding="UTF-8" standalone="no"?>
<!-- Created with Inkscape (http://www.inkscape.org/) -->

<svg
   width="1305.4945mm"
   height="400mm"
   viewBox="0 0 1305.4945 400"
   version="1.1"
   id="svg1988"
   xml:space="preserve"
   inkscape:version="1.2 (dc2aeda, 2022-05-15)"
   sodipodi:docname="Logo_TUHH_SoftSEC.svg"
   xmlns:inkscape="http://www.inkscape.org/namespaces/inkscape"
   xmlns:sodipodi="http://sodipodi.sourceforge.net/DTD/sodipodi-0.dtd"
   xmlns="http://www.w3.org/2000/svg"
   xmlns:svg="http://www.w3.org/2000/svg"><sodipodi:namedview
     id="namedview1990"
     pagecolor="#ffffff"
     bordercolor="#000000"
     borderopacity="0.25"
     inkscape:showpageshadow="2"
     inkscape:pageopacity="0.0"
     inkscape:pagecheckerboard="0"
     inkscape:deskcolor="#d1d1d1"
     inkscape:document-units="mm"
     showgrid="false"
     inkscape:zoom="0.22392792"
     inkscape:cx="2717.3923"
     inkscape:cy="801.59724"
     inkscape:window-width="1920"
     inkscape:window-height="929"
     inkscape:window-x="0"
     inkscape:window-y="25"
     inkscape:window-maximized="0"
     inkscape:current-layer="layer1" /><defs
     id="defs1985"><rect
       x="2906.4543"
       y="1568.1023"
       width="753.93823"
       height="78.070526"
       id="rect8153" /><clipPath
       clipPathUnits="userSpaceOnUse"
       id="clipPath1144"><rect
         style="fill:none;stroke:#000000;stroke-width:1;stroke-linecap:round;stroke-linejoin:round;stroke-dasharray:none;paint-order:markers stroke fill"
         id="rect1146"
         width="81.224747"
         height="157.85188"
         x="476.87778"
         y="-56.626179"
         ry="0" /></clipPath></defs><g
     inkscape:label="Layer 1"
     inkscape:groupmode="layer"
     id="layer1"><g
       inkscape:label="Layer 1"
       id="layer1-6"
       transform="matrix(2.9846965,0,0,2.9846965,454.66142,-112.7464)"><g
         id="g591"
         inkscape:export-filename="e22-logo.png"
         inkscape:export-xdpi="200"
         inkscape:export-ydpi="200"><g
           id="g2532"
           transform="translate(1.9580733,0.84788817)"
           inkscape:export-filename="e22-logo.png"
           inkscape:export-xdpi="200"
           inkscape:export-ydpi="200"><path
             style="fill:#00c1d4;fill-opacity:1;stroke:#000000;stroke-width:0;stroke-miterlimit:4;stroke-dasharray:none;stroke-dashoffset:0;paint-order:markers fill stroke"
             d="m 79.939814,44.021032 c -0.29763,0 -1.37964,0.42019 -2.40451,0.93431 -5.8053,2.91225 -13.87305,6.35707 -19.00761,8.11579 -6.24623,2.1395 -10.28094,3.07391 -21.16926,4.90254 l -7.79073,1.30845 0.0625,4.05556 c 0.11401,7.43058 0.93197,22.665378 1.53014,28.494898 0.42307,4.12325 2.53876,13.09792 4.5284,19.2102 1.20142,3.69086 3.17513,8.71963 4.56612,11.63288 2.58885,5.42198 8.96758,15.20562 12.87209,19.7435 3.47308,4.03647 9.1264,9.27306 15.71479,14.55673 3.00191,2.40743 10.05899,6.43322 10.99262,6.27094 0.2935,-0.051 1.3498,-0.47966 2.34765,-0.95292 2.71857,-1.28936 7.0526,-4.07926 9.85573,-6.34431 6.31833,-5.10549 11.460816,-9.98696 15.153606,-14.38414 3.18474,-3.79222 9.31603,-13.17423 11.64839,-17.82423 4.85769,-9.68487 8.84946,-23.5583 9.85676,-34.25631 0.47717,-5.06811 1.16903,-19.130528 1.34308,-27.302718 l 0.061,-2.86339 -2.02777,-0.39223 c -1.11527,-0.21575 -3.56426,-0.63593 -5.44259,-0.93379 -9.31285,-1.47681 -15.1158,-2.81552 -21.20283,-4.89066 -5.526776,-1.88415 -12.438166,-4.81687 -18.441746,-7.82588 -1.37761,-0.69045 -2.74817,-1.25522 -3.04583,-1.25522 z"
             id="path3356"
             inkscape:export-filename="../../../Downloads/logo_softsec.jpg"
             inkscape:export-xdpi="200"
             inkscape:export-ydpi="200" /><path
             style="fill:none;stroke:#00c1d4;stroke-width:2;stroke-linecap:butt;stroke-linejoin:miter;stroke-miterlimit:4;stroke-dasharray:none;stroke-opacity:1;paint-order:markers fill stroke"
             d="m 79.509474,164.03799 c 11.68653,-8.86782 14.32669,-40.78436 13.5416,-60.9209"
             id="path3360"
             sodipodi:nodetypes="cc"
             inkscape:export-filename="/Users/nicoediaz/Downloads/logo_softsec_v2.png"
             inkscape:export-xdpi="96"
             inkscape:export-ydpi="96" /><path
             style="fill:none;stroke:#00c1d4;stroke-width:2;stroke-linecap:butt;stroke-linejoin:miter;stroke-miterlimit:4;stroke-dasharray:none;stroke-opacity:1;paint-order:markers fill stroke"
             d="M 79.410644,43.491862 104.28275,103.07356"
             id="path3362"
             sodipodi:nodetypes="cc"
             inkscape:export-filename="/Users/nicoediaz/Downloads/logo_softsec_v2.png"
             inkscape:export-xdpi="96"
             inkscape:export-ydpi="96" /><path
             style="fill:none;stroke:#00c1d4;stroke-width:2;stroke-linecap:round;stroke-linejoin:round;stroke-miterlimit:4;stroke-dasharray:none;stroke-opacity:1;paint-order:markers fill stroke"
             d="m 93.339494,103.1213 10.852136,-0.0519"
             id="path3364"
             sodipodi:nodetypes="cc"
             inkscape:export-filename="/Users/nicoediaz/Downloads/logo_softsec_v2.png"
             inkscape:export-xdpi="96"
             inkscape:export-ydpi="96" /><ellipse
             style="fill:#ffffff;stroke:#ffffff;stroke-width:0.5;stroke-miterlimit:4;stroke-dasharray:none;stroke-dashoffset:0;paint-order:markers fill stroke"
             id="ellipse3366"
             cx="103.37432"
             cy="82.122292"
             rx="2.0417404"
             ry="1.8561276"
             inkscape:export-filename="/Users/nicoediaz/Downloads/logo_softsec_v2.png"
             inkscape:export-xdpi="96"
             inkscape:export-ydpi="96" /><ellipse
             style="fill:#ffffff;stroke:#ffffff;stroke-width:0.5;stroke-miterlimit:4;stroke-dasharray:none;stroke-dashoffset:0;paint-order:markers fill stroke"
             id="ellipse3368"
             cx="93.320183"
             cy="60.955631"
             rx="2.0417404"
             ry="1.8561276"
             inkscape:export-filename="/Users/nicoediaz/Downloads/logo_softsec_v2.png"
             inkscape:export-xdpi="96"
             inkscape:export-ydpi="96" /><ellipse
             style="fill:#ffffff;stroke:#ffffff;stroke-width:0.5;stroke-miterlimit:4;stroke-dasharray:none;stroke-dashoffset:0;paint-order:markers fill stroke"
             id="ellipse3370"
             cx="111.89288"
             cy="79.129494"
             rx="2.0417404"
             ry="1.8561276"
             inkscape:export-filename="/Users/nicoediaz/Downloads/logo_softsec_v2.png"
             inkscape:export-xdpi="96"
             inkscape:export-ydpi="96" /><ellipse
             style="fill:#ffffff;stroke:#ffffff;stroke-width:0.5;stroke-miterlimit:4;stroke-dasharray:none;stroke-dashoffset:0;paint-order:markers fill stroke"
             id="ellipse3372"
             cx="113.00658"
             cy="105.11523"
             rx="2.0417404"
             ry="1.8561276"
             inkscape:export-filename="/Users/nicoediaz/Downloads/logo_softsec_v2.png"
             inkscape:export-xdpi="96"
             inkscape:export-ydpi="96" /><ellipse
             style="fill:#ffffff;stroke:#ffffff;stroke-width:0.5;stroke-miterlimit:4;stroke-dasharray:none;stroke-dashoffset:0;paint-order:markers fill stroke"
             id="ellipse3374"
             cx="99.456841"
             cy="116.43765"
             rx="2.0417404"
             ry="1.8561276"
             inkscape:export-filename="/Users/nicoediaz/Downloads/logo_softsec_v2.png"
             inkscape:export-xdpi="96"
             inkscape:export-ydpi="96" /><ellipse
             style="fill:#ffffff;stroke:#ffffff;stroke-width:0.5;stroke-miterlimit:4;stroke-dasharray:none;stroke-dashoffset:0;paint-order:markers fill stroke"
             id="ellipse3376"
             cx="106.51012"
             cy="128.13126"
             rx="2.0417404"
             ry="1.8561276"
             inkscape:export-filename="/Users/nicoediaz/Downloads/logo_softsec_v2.png"
             inkscape:export-xdpi="96"
             inkscape:export-ydpi="96" /><path
             style="fill:none;stroke:#ffffff;stroke-width:0.42483;stroke-linecap:butt;stroke-linejoin:miter;stroke-miterlimit:4;stroke-dasharray:none;stroke-opacity:1"
             d="m 93.320064,59.443062 v -9.64787"
             id="path3378"
             inkscape:export-filename="/Users/nicoediaz/Downloads/logo_softsec_v2.png"
             inkscape:export-xdpi="96"
             inkscape:export-ydpi="96" /><path
             style="fill:none;stroke:#ffffff;stroke-width:0.5;stroke-linecap:butt;stroke-linejoin:miter;stroke-miterlimit:4;stroke-dasharray:none;stroke-opacity:1"
             d="M 112.07848,77.27338 V 71.14816 L 107.995,67.064682 v -11.50799"
             id="path3380"
             inkscape:export-filename="/Users/nicoediaz/Downloads/logo_softsec_v2.png"
             inkscape:export-xdpi="96"
             inkscape:export-ydpi="96" /><path
             style="fill:none;stroke:#ffffff;stroke-width:0.5;stroke-linecap:butt;stroke-linejoin:miter;stroke-miterlimit:4;stroke-dasharray:none;stroke-opacity:1"
             d="M 121.54473,90.6375 V 79.50073 l -5.93961,-5.9396 V 56.855982"
             id="path3382"
             inkscape:export-filename="/Users/nicoediaz/Downloads/logo_softsec_v2.png"
             inkscape:export-xdpi="96"
             inkscape:export-ydpi="96" /><path
             style="fill:none;stroke:#ffffff;stroke-width:0.5;stroke-linecap:butt;stroke-linejoin:miter;stroke-miterlimit:4;stroke-dasharray:none;stroke-opacity:1"
             d="m 113.00655,106.78581 v 9.09503 l 6.49644,6.49644"
             id="path3384"
             inkscape:export-filename="/Users/nicoediaz/Downloads/logo_softsec_v2.png"
             inkscape:export-xdpi="96"
             inkscape:export-ydpi="96" /><path
             style="fill:none;stroke:#ffffff;stroke-width:0.5;stroke-linecap:butt;stroke-linejoin:miter;stroke-miterlimit:4;stroke-dasharray:none;stroke-opacity:1"
             d="m 106.69571,129.80179 v 13.54974"
             id="path3386"
             inkscape:export-filename="/Users/nicoediaz/Downloads/logo_softsec_v2.png"
             inkscape:export-xdpi="96"
             inkscape:export-ydpi="96" /><path
             style="fill:none;stroke:#ffffff;stroke-width:0.5;stroke-linecap:butt;stroke-linejoin:miter;stroke-miterlimit:4;stroke-dasharray:none;stroke-opacity:1"
             d="m 99.456814,118.10819 v 12.06483 l -3.71225,5.38277 v 20.04618"
             id="path3388"
             inkscape:export-filename="/Users/nicoediaz/Downloads/logo_softsec_v2.png"
             inkscape:export-xdpi="96"
             inkscape:export-ydpi="96" /><ellipse
             style="fill:#ffffff;stroke:#ffffff;stroke-width:0.5;stroke-miterlimit:4;stroke-dasharray:none;stroke-dashoffset:0;paint-order:markers fill stroke"
             id="ellipse3390"
             cx="107.43822"
             cy="93.050453"
             rx="2.0417404"
             ry="1.8561276"
             inkscape:export-filename="/Users/nicoediaz/Downloads/logo_softsec_v2.png"
             inkscape:export-xdpi="96"
             inkscape:export-ydpi="96" /><path
             style="fill:none;stroke:#ffffff;stroke-width:0.5;stroke-linecap:butt;stroke-linejoin:miter;stroke-miterlimit:4;stroke-dasharray:none;stroke-opacity:1"
             d="m 107.43816,94.90659 v 21.7167 l 4.45471,4.82593 v 14.66341"
             id="path3392"
             inkscape:export-filename="/Users/nicoediaz/Downloads/logo_softsec_v2.png"
             inkscape:export-xdpi="96"
             inkscape:export-ydpi="96" /><path
             style="fill:none;stroke:#ffffff;stroke-width:0.5;stroke-linecap:butt;stroke-linejoin:miter;stroke-miterlimit:4;stroke-dasharray:none;stroke-opacity:1"
             d="M 103.30479,79.94581 V 73.0442 l -3.450796,-3.185348 v -16.72311"
             id="path3394"
             inkscape:export-filename="/Users/nicoediaz/Downloads/logo_softsec_v2.png"
             inkscape:export-xdpi="96"
             inkscape:export-ydpi="96" /><ellipse
             style="fill:#ffffff;stroke:#ffffff;stroke-width:0.5;stroke-miterlimit:4;stroke-dasharray:none;stroke-dashoffset:0;paint-order:markers fill stroke"
             id="ellipse3402"
             cx="121.77441"
             cy="91.589394"
             rx="2.0417404"
             ry="1.8561276"
             inkscape:export-filename="/Users/nicoediaz/Downloads/logo_softsec_v1.png"
             inkscape:export-xdpi="96"
             inkscape:export-ydpi="96" /><path
             style="fill:#00c1d4;fill-opacity:1;stroke-width:0.213445"
             d="m 77.921964,167.21301 c -2.13018,-0.88882 -8.37528,-4.76604 -10.62591,-6.59702 -5.36974,-4.36851 -10.74844,-9.21414 -13.38928,-12.06233 -7.40011,-7.98113 -14.80903,-19.64495 -18.681,-29.40938 -3.49601,-8.81634 -6.66149,-21.18518 -7.34715,-28.7084 -0.95764,-10.50735 -1.92499,-33.077898 -1.43077,-33.383338 0.13131,-0.0811 3.4168,-0.67191 7.30108,-1.31279 10.22494,-1.68703 13.86473,-2.46415 19.62681,-4.19046 5.91347,-1.77166 12.93792,-4.63425 20.89483,-8.51502 2.62882,-1.28214 4.97688,-2.33117 5.21788,-2.33117 0.24101,0 1.25981,0.42387 2.264,0.94194 1.0042,0.51807 3.84287,1.87168 6.30816,3.00802 13.163096,6.06735 21.487176,8.59748 35.431926,10.76965 5.75998,0.89723 8.88957,1.54963 9.01617,1.87952 0.25596,0.66703 -0.87041,25.350878 -1.44865,31.746258 -1.18664,13.12451 -6.26288,29.69791 -12.26452,40.04241 -3.50624,6.0434 -7.30911,11.67721 -10.6419,15.76556 -3.24306,3.97828 -10.296386,10.64572 -16.586366,15.67893 -3.19459,2.5563 -10.08116,6.61417 -11.96478,7.05018 -0.29183,0.0676 -1.00425,-0.0904 -1.68053,-0.37256 z m 3.84201,-4.82187 c 2.71856,-1.28936 7.05258,-4.07926 9.85571,-6.34431 6.31831,-5.10549 11.460876,-9.98688 15.153656,-14.38406 3.18473,-3.79222 9.31593,-13.17419 11.64827,-17.82419 4.85771,-9.68487 8.84972,-23.55847 9.85701,-34.25648 0.47719,-5.06811 1.16885,-19.130558 1.34287,-27.302748 l 0.061,-2.86324 -2.02773,-0.39229 c -1.11525,-0.21575 -3.56454,-0.63598 -5.44286,-0.93384 -9.31288,-1.47681 -15.11558,-2.81518 -21.2026,-4.89032 -5.526766,-1.88415 -12.437986,-4.81707 -18.441586,-7.82608 -1.37759,-0.69045 -2.74823,-1.25535 -3.04587,-1.25535 -0.29763,0 -1.37968,0.42064 -2.40454,0.93476 -5.80532,2.91225 -13.87327,6.357 -19.00782,8.11572 -6.24623,2.1395 -10.2807,3.07382 -21.169,4.90245 l -7.79076,1.30841 0.0622,4.05546 c 0.11401,7.43058 0.93222,22.665448 1.53037,28.494968 0.42308,4.12325 2.53855,13.0978 4.52819,19.21008 1.20143,3.69086 3.17541,8.71952 4.5664,11.63277 2.58884,5.42198 8.96745,15.20582 12.87197,19.7437 3.47309,4.03647 9.1264,9.27323 15.7148,14.5569 3.00191,2.40743 10.05879,6.43321 10.99243,6.27093 0.29349,-0.051 1.35004,-0.47998 2.3479,-0.95324 z"
             id="path3404"
             inkscape:export-filename="/Users/nicoediaz/Downloads/logo_softsec_v2.png"
             inkscape:export-xdpi="96"
             inkscape:export-ydpi="96" /><path
             id="use1316"
             style="fill:#ffffff;stroke:#ffffff;stroke-width:1.00152;stroke-linecap:round;stroke-linejoin:round;stroke-miterlimit:4;stroke-dasharray:none;stroke-opacity:1;paint-order:stroke fill markers"
             d="m 99.625174,103.8601 -6.05273,0.0479 c 0.64084,20.19701 -2.49737,50.05773 -14.1832,58.87497 l 0.0965,-118.226618 z"
             sodipodi:nodetypes="ccccc" /><path
             style="fill:#ffffff;stroke:none;stroke-width:1;stroke-miterlimit:4;stroke-dasharray:none;stroke-dashoffset:0;paint-order:stroke fill markers"
             d="m 558.19011,-51.091477 c -0.29763,0 -1.37964,0.42019 -2.40451,0.93431 -5.8053,2.91225 -13.87305,6.357071 -19.00761,8.115791 -6.24623,2.1395 -10.28094,3.07391 -21.16926,4.90254 l -7.79073,1.30845 0.0625,4.05556 c 0.11401,7.43058 0.93197,22.6653797 1.53014,28.4949 0.42307,4.12325003 2.53876,13.0979202 4.5284,19.2102 1.20142,3.69086 3.17513,8.71963 4.56612,11.63288 2.58885,5.42198 8.96758,15.20562 12.87209,19.743497 3.47308,4.03647 9.1264,9.27306 15.71479,14.55673 3.00191,2.40743 10.05899,6.43322 10.99262,6.27094 0.2935,-0.051 1.3498,-0.47966 2.34765,-0.95292 2.71857,-1.28936 7.0526,-4.07926 9.85573,-6.34431 6.31833,-5.10549 11.46082,-9.98696 15.15361,-14.38414 3.18474,-3.792217 9.31603,-13.174227 11.64839,-17.824227 4.85769,-9.68487 8.84946,-23.5582998 9.85676,-34.2563099 0.47717,-5.0681101 1.16903,-19.1305301 1.34308,-27.3027201 l 0.061,-2.86339 -2.02777,-0.39223 c -1.11527,-0.21575 -3.56426,-0.63593 -5.44259,-0.93379 -9.31285,-1.47681 -15.1158,-2.81552 -21.20283,-4.89066 -5.52678,-1.88415 -12.43817,-4.816871 -18.44175,-7.825881 -1.37761,-0.69045 -2.74817,-1.25522 -3.04583,-1.25522 z"
             id="path1515"
             clip-path="url(#clipPath1144)"
             transform="translate(-478.66484,95.13284)"
             sodipodi:nodetypes="ssssccsssssssssssscsssss" /><g
             id="g3400"
             transform="matrix(1.0815,0,0,1.0815,-30.026076,-21.508508)"
             inkscape:export-filename="/Users/nicoediaz/Downloads/logo_softsec_v2.png"
             inkscape:export-xdpi="96"
             inkscape:export-ydpi="96"
             style="fill:#00c1d4;fill-opacity:1;stroke:#00c1d4;stroke-width:1.00046;stroke-miterlimit:4;stroke-dasharray:none;stroke-opacity:1;paint-order:stroke fill markers"><ellipse
               style="fill:#00c1d4;fill-opacity:1;fill-rule:evenodd;stroke:#00c1d4;stroke-width:1.00046;stroke-miterlimit:4;stroke-dasharray:none;stroke-opacity:1;paint-order:stroke fill markers"
               id="ellipse3396"
               cx="101.96041"
               cy="95.058838"
               rx="3.3493025"
               ry="3.1805089"
               inkscape:export-filename="/Users/nicoediaz/Downloads/logo_softsec.png"
               inkscape:export-xdpi="96"
               inkscape:export-ydpi="96" /><path
               sodipodi:type="star"
               style="fill:#00c1d4;fill-opacity:1;stroke:#00c1d4;stroke-width:8.31131;stroke-linecap:round;stroke-linejoin:round;stroke-miterlimit:4;stroke-dasharray:none;stroke-opacity:1;paint-order:stroke fill markers"
               id="path3398"
               inkscape:flatsided="false"
               sodipodi:sides="3"
               sodipodi:cx="-39.285713"
               sodipodi:cy="-102.38095"
               sodipodi:r1="34.110828"
               sodipodi:r2="17.055414"
               sodipodi:arg1="0.51048832"
               sodipodi:arg2="1.5576859"
               inkscape:rounded="0"
               inkscape:randomized="0"
               transform="matrix(0.08438184,0,0,0.17171691,105.2457,116.90163)"
               inkscape:transform-center-x="-0.018867949"
               inkscape:transform-center-y="-1.4309734"
               d="m -9.5238102,-85.714285 -29.5383058,0.387283 -29.538305,0.387282 14.433757,-25.77456 14.433755,-25.77457 15.10455,25.38728 z" /></g><text
             xml:space="preserve"
             style="font-style:normal;font-variant:normal;font-weight:600;font-stretch:normal;font-size:22.9306px;line-height:1.12;font-family:Poppins;-inkscape-font-specification:'Poppins Semi-Bold';fill:#00c1d4;fill-opacity:1;stroke:none;stroke-width:0.264583"
             x="143.16699"
             y="79.702126"
             id="text7625"><tspan
               sodipodi:role="line"
               id="tspan7623"
               style="font-style:normal;font-variant:normal;font-weight:bold;font-stretch:normal;font-size:31.75px;font-family:Poppins;-inkscape-font-specification:'Poppins Bold';fill:#00c1d4;fill-opacity:1;stroke-width:0.264583"
               x="143.16699"
               y="79.702126">SoftSEC</tspan><tspan
               sodipodi:role="line"
               style="font-style:normal;font-variant:normal;font-weight:normal;font-stretch:normal;font-size:22.9306px;font-family:Poppins;-inkscape-font-specification:Poppins;fill:#00c1d4;fill-opacity:1;stroke-width:0.264583"
               x="143.16699"
               y="108.11841"
               id="tspan8145">Institute of</tspan><tspan
               sodipodi:role="line"
               style="font-style:normal;font-variant:normal;font-weight:normal;font-stretch:normal;font-size:22.9306px;font-family:Poppins;-inkscape-font-specification:Poppins;fill:#00c1d4;fill-opacity:1;stroke-width:0.264583"
               x="143.16699"
               y="133.80069"
               id="tspan8147">Software </tspan><tspan
               sodipodi:role="line"
               style="font-style:normal;font-variant:normal;font-weight:normal;font-stretch:normal;font-size:22.9306px;font-family:Poppins;-inkscape-font-specification:Poppins;fill:#00c1d4;fill-opacity:1;stroke-width:0.264583"
               x="143.16699"
               y="159.48296"
               id="tspan8157">Security</tspan><tspan
               sodipodi:role="line"
               style="font-style:normal;font-variant:normal;font-weight:600;font-stretch:normal;font-size:22.9306px;font-family:Poppins;-inkscape-font-specification:'Poppins Semi-Bold';fill:#00c1d4;fill-opacity:1;stroke-width:0.264583"
               x="143.16699"
               y="185.16522"
               id="tspan8143" /></text></g></g><text
         xml:space="preserve"
         transform="scale(0.26458333)"
         id="text8151"
         style="font-style:normal;font-weight:normal;font-size:40px;line-height:1.25;font-family:sans-serif;white-space:pre;shape-inside:url(#rect8153);display:inline;fill:#000000;fill-opacity:1;stroke:none" /><rect
         style="fill:none;stroke:none;stroke-width:0.910454;stroke-linecap:round;stroke-linejoin:round;paint-order:stroke fill markers"
         id="rect398"
         width="297.08957"
         height="170.19528"
         x="-0.044784546"
         y="19.902359" /></g><g
       id="g2616"
       transform="matrix(0.7288832,0,0,0.7288832,-95.352937,-159.28851)"> 	<polygon
   class="st0"
   points="271.8,279.2 185.9,279.2 185.9,301.9 216,301.9 216,384.8 241.7,384.8 241.7,301.9 271.8,301.9 "
   id="polygon2546" /> 	<polygon
   class="st0"
   points="406.5,279.2 380.8,279.2 380.8,384.8 406.5,384.8 406.5,343.4 440.9,343.4 440.9,384.8 466.7,384.8 466.7,279.2 440.9,279.2 440.9,320.7 406.5,320.7 "
   id="polygon2548" /> 	<polygon
   class="st0"
   points="505.3,279.2 479.5,279.2 479.5,384.8 505.3,384.8 505.3,343.4 539.6,343.4 539.6,384.8 565.4,384.8 565.4,279.2 539.6,279.2 539.6,320.7 505.3,320.7 "
   id="polygon2550" /> 	<path
   class="st0"
   d="m 325,386.3 c 23.7,0 43,-19.1 43,-42.6 v -64.5 h -25.6 v 64.5 c 0,9.5 -7.8,17.2 -17.4,17.2 -9.5,0 -17.3,-7.7 -17.4,-17.2 V 279.2 H 282 v 64.5 c 0.1,23.5 19.3,42.6 43,42.6 z"
   id="path2552" /> 	<path
   class="st0"
   d="m 548.2,640.9 c -17,0 -29.4,12 -29.4,28.8 0,16.7 12.4,28.9 29.4,28.9 17,0 29.3,-12.2 29.3,-28.9 0,-16.7 -12.3,-28.8 -29.3,-28.8 z m 0,50 c -11.9,0 -20.6,-8.9 -20.6,-21.3 0,-12.3 8.6,-21.1 20.6,-21.1 11.8,0 20.5,8.9 20.5,21.1 -0.1,12.5 -8.7,21.3 -20.5,21.3 z"
   id="path2554" /> 	<path
   class="st0"
   d="m 284,640.9 c -17,0 -29.4,12 -29.4,28.8 0,16.7 12.4,28.9 29.4,28.9 13.8,0 25.5,-9 28.5,-21.4 h -8.9 c -2.4,8.2 -10.2,14.2 -19.5,14.2 -11.4,0 -19.9,-8 -21,-19 h 50 c 0.1,-0.9 0.2,-1.8 0.2,-2.7 0,-16.7 -12.3,-28.8 -29.3,-28.8 z m -20.7,24.8 c 1.7,-10.5 9.9,-17.6 20.8,-17.6 10.9,0 19.4,7.3 20.9,17.6 z"
   id="path2556" /> 	<path
   class="st0"
   d="m 351.8,648.5 c 9.9,0 18.1,6.7 19.9,16.1 h 8.8 c -1.8,-13.8 -13.9,-23.8 -28.6,-23.8 -17,0 -29.4,12 -29.4,28.8 0,16.7 12.4,28.9 29.4,28.9 14.8,0 26.8,-10 28.6,-23.9 h -8.8 c -1.8,9.4 -9.9,16.3 -19.9,16.3 -11.9,0 -20.6,-8.9 -20.6,-21.3 0,-12.2 8.7,-21.1 20.6,-21.1 z"
   id="path2558" /> 	<rect
   x="589.79999"
   y="619.09998"
   class="st0"
   width="8.6999998"
   height="78.400002"
   id="rect2560" /> 	<polygon
   class="st0"
   points="224.2,697.5 233.4,697.5 233.4,627.4 258.4,627.4 258.4,619.1 199.2,619.1 199.2,627.4 224.2,627.4 "
   id="polygon2562" /> 	<path
   class="st0"
   d="m 728.5,652 c -4.9,-6.8 -12.8,-11 -22.4,-11 -15.9,0 -27.5,11.7 -27.5,28 0,16.3 11.6,28 27.5,28 9.5,0 17.5,-4.2 22.4,-11.1 v 8.7 c 0,11.5 -8.5,19.8 -20.3,19.8 -8.4,0 -16.4,-5 -18.8,-11.7 l -8.3,-0.1 c 2.7,10.9 14.2,18.9 27.4,18.9 16.7,0 28.6,-11.5 28.6,-27.3 V 642 h -8.6 z m -20.4,38 c -11.9,0 -20.6,-8.9 -20.6,-21.1 0,-12.4 8.6,-21.3 20.6,-21.3 11.8,0 20.5,8.9 20.5,21.3 -0.1,12.3 -8.7,21.1 -20.5,21.1 z"
   id="path2564" /> 	<polygon
   class="st0"
   points="756.3,719.8 765.5,719.8 803.1,641.8 793.9,641.8 774.9,682.4 755.7,641.8 746.5,641.8 770.8,691.1 "
   id="polygon2566" /> 	<path
   class="st0"
   d="m 484.8,640.9 c -8.5,0 -15.2,4 -18.7,10.8 v -9.9 h -8.8 v 55.7 h 8.8 V 665 c 0,-10.5 6.4,-17.2 16.2,-17.2 9.8,0 16,6.7 16,17.2 v 32.5 h 8.6 V 664 C 507,650 498,640.9 484.8,640.9 Z"
   id="path2568" /> 	<path
   class="st0"
   d="m 640.2,640.9 c -17,0 -29.4,12 -29.4,28.8 0,16.7 12.4,28.9 29.4,28.9 17,0 29.3,-12.2 29.3,-28.9 0,-16.7 -12.3,-28.8 -29.3,-28.8 z m 0,50 c -11.9,0 -20.6,-8.9 -20.6,-21.3 0,-12.3 8.6,-21.1 20.6,-21.1 11.8,0 20.5,8.9 20.5,21.1 -0.1,12.5 -8.7,21.3 -20.5,21.3 z"
   id="path2570" /> 	<path
   class="st0"
   d="m 420.1,640.9 c -8.5,0 -15.2,4 -18.7,10.8 v -32.6 h -8.8 v 78.4 h 8.8 V 665 c 0,-10.5 6.4,-17.2 16.2,-17.2 9.8,0 16,6.7 16,17.2 v 32.5 h 8.6 V 664 c 0,-14 -8.9,-23.1 -22.1,-23.1 z"
   id="path2572" /> 	<rect
   x="339.29999"
   y="537.40002"
   class="st0"
   width="8.6000004"
   height="55.700001"
   id="rect2574" /> 	<path
   class="st0"
   d="m 343.6,517.1 c -3.5,0 -5.9,2.3 -5.9,5.5 0,3.3 2.4,5.6 5.9,5.6 3.4,0 5.8,-2.3 5.8,-5.6 0,-3.2 -2.4,-5.5 -5.8,-5.5 z"
   id="path2576" /> 	<path
   class="st0"
   d="m 810.1,521.1 c 1,0 2.6,0.2 4,0.8 v -7.8 c -1.4,-0.2 -3,-0.3 -4.1,-0.3 -9.2,0 -15.7,5.9 -15.7,14.4 v 9.2 h -8.2 v 7.4 h 8.2 V 593 h 8.7 v -48.3 h 11 v -7.4 h -11 v -9.2 c 0.1,-4.2 2.9,-7 7.1,-7 z"
   id="path2578" /> 	<polygon
   class="st0"
   points="598.5,537.4 598.5,544.7 608.8,544.7 608.8,593 617.4,593 617.4,544.7 630.2,544.7 630.2,537.4 617.4,537.4 617.4,523.2 608.8,523.2 608.8,537.4 "
   id="polygon2580" /> 	<path
   class="st0"
   d="m 545.6,542.9 c 7.4,0 12.4,3.9 12.6,9.7 h 8.1 c 0,-9.5 -8.4,-16.1 -20.6,-16.1 -12.3,0 -20.7,6.3 -20.7,15.8 0,12.6 11.9,14.9 20.5,16.4 7.2,1.4 13.6,2.4 13.6,9.5 0,5.6 -5.3,9.3 -13,9.3 -8.1,0 -13.6,-4.1 -13.9,-10.2 h -8.5 c 0.2,9.9 9.2,16.8 22.2,16.8 12.8,0 21.7,-6.7 21.7,-16.4 0,-12.8 -12.7,-15 -20.9,-16.6 -7.2,-1.5 -13.1,-2.6 -13.1,-9.7 0.1,-5.1 5,-8.5 12,-8.5 z"
   id="path2582" /> 	<path
   class="st0"
   d="m 584.6,528.1 c 3.4,0 5.8,-2.3 5.8,-5.6 0,-3.2 -2.4,-5.5 -5.8,-5.5 -3.5,0 -5.9,2.3 -5.9,5.5 0,3.4 2.4,5.6 5.9,5.6 z"
   id="path2584" /> 	<path
   class="st0"
   d="m 495.4,550.9 v -13.5 h -8.7 V 593 h 8.7 v -28.2 c 0,-12.8 8,-20.2 21.6,-20.2 v -8.5 c -10.5,0 -18.1,5.3 -21.6,14.8 z"
   id="path2586" /> 	<rect
   x="580.29999"
   y="537.40002"
   class="st0"
   width="8.6000004"
   height="55.700001"
   id="rect2588" /> 	<path
   class="st0"
   d="m 473.7,572.7 h -8.9 c -2.4,8.2 -10.2,14.2 -19.5,14.2 -11.4,0 -19.9,-8 -21,-19 h 50 c 0.1,-0.9 0.2,-1.8 0.2,-2.7 0,-16.7 -12.3,-28.8 -29.3,-28.8 -17,0 -29.4,12 -29.4,28.8 0,16.7 12.4,28.9 29.4,28.9 13.7,0 25.4,-9 28.5,-21.4 z m -28.4,-29.1 c 10.9,0 19.4,7.3 20.9,17.6 h -41.7 c 1.7,-10.4 9.9,-17.6 20.8,-17.6 z"
   id="path2590" /> 	<path
   class="st0"
   d="m 751.1,594.1 c 17,0 29.3,-12.2 29.3,-28.9 0,-16.7 -12.3,-28.8 -29.3,-28.8 -17,0 -29.4,12 -29.4,28.8 0,16.7 12.4,28.9 29.4,28.9 z m 0,-50 c 11.8,0 20.5,8.9 20.5,21.1 0,12.4 -8.6,21.3 -20.5,21.3 -11.9,0 -20.6,-8.9 -20.6,-21.3 0,-12.3 8.7,-21.1 20.6,-21.1 z"
   id="path2592" /> 	<path
   class="st0"
   d="m 229,594.1 c 18,0 30,-11.9 30,-30 v -49.4 h -9.2 v 49 c 0,13.3 -8.2,21.9 -20.9,21.9 -12.6,0 -20.8,-8.6 -20.8,-21.9 v -49 h -9.3 v 49.4 c -0.1,18 12.1,30 30.2,30 z"
   id="path2594" /> 	<polygon
   class="st0"
   points="655.9,615.3 693.5,537.4 684.3,537.4 665.3,577.9 646.1,537.4 636.9,537.4 661.2,586.6 646.7,615.3 "
   id="polygon2596" /> 	<path
   class="st0"
   d="m 324.4,593 v -33.5 c 0,-14 -9,-23.1 -22.2,-23.1 -8.5,0 -15.2,4 -18.8,10.8 v -9.9 h -8.7 V 593 h 8.7 v -32.5 c 0,-10.5 6.4,-17.2 16.3,-17.2 9.8,0 16,6.7 16,17.2 V 593 Z"
   id="path2598" /> 	<polygon
   class="st0"
   points="389.8,593 412.3,537.4 403.1,537.4 384.7,584.4 366.2,537.4 357,537.4 379.5,593 "
   id="polygon2600" /> 	<path
   class="st0"
   d="m 638,488.3 c 9.5,0 17.5,-4.2 22.4,-11.1 v 8.7 c 0,11.5 -8.5,19.8 -20.3,19.8 -8.4,0 -16.4,-5 -18.8,-11.7 l -8.3,-0.1 c 2.7,10.9 14.2,18.9 27.4,18.9 16.7,0 28.6,-11.5 28.6,-27.3 v -52.2 h -8.6 v 10.1 c -4.9,-6.8 -12.8,-11 -22.4,-11 -15.9,0 -27.5,11.7 -27.5,28 0,16.2 11.6,27.9 27.5,27.9 z m 2,-49.2 c 11.8,0 20.5,8.9 20.5,21.3 0,12.3 -8.6,21.1 -20.5,21.1 -11.9,0 -20.6,-8.9 -20.6,-21.1 0,-12.4 8.6,-21.3 20.6,-21.3 z"
   id="path2602" /> 	<path
   class="st0"
   d="m 354.8,441.6 v -8.3 H 346 V 489 h 8.8 v -35.2 c 0,-8.9 5.2,-14.3 13.5,-14.3 8.5,0 13.5,5.5 13.5,14.3 V 489 h 8.6 v -35.2 c 0,-8.9 5.2,-14.3 13.6,-14.3 8.4,0 13.4,5.5 13.4,14.3 V 489 h 8.6 v -36.3 c 0,-12.5 -7.6,-20.3 -19.2,-20.3 -8.6,0 -15.2,4.2 -18.2,11.3 -2.7,-7 -8.9,-11.3 -17.2,-11.3 -7.4,0 -13.4,3.3 -16.6,9.2 z"
   id="path2604" /> 	<polygon
   class="st0"
   points="208.8,489 208.8,454.4 248.7,454.4 248.7,489 258,489 258,410.6 248.7,410.6 248.7,446.1 208.8,446.1 208.8,410.6 199.6,410.6 199.6,489 "
   id="polygon2606" /> 	<path
   class="st0"
   d="m 560.7,466.1 v -32.7 h -8.8 v 32.7 c 0,10.1 -6.2,16.7 -15.9,16.7 -9.7,0 -15.9,-6.6 -15.9,-16.7 v -32.7 h -8.7 v 32.7 c 0,14.4 9.9,24 24.7,24 14.7,-0.1 24.6,-9.6 24.6,-24 z"
   id="path2608" /> 	<path
   class="st0"
   d="m 299.6,490 c 9.4,0 17.4,-4.2 22.3,-11.1 V 489 h 8.6 v -55.7 h -8.6 v 10.2 c -4.9,-6.9 -12.8,-11.1 -22.3,-11.1 -16,0 -27.6,12 -27.6,28.8 0,16.7 11.6,28.8 27.6,28.8 z m 1.9,-50 c 11.8,0 20.5,8.9 20.5,21.1 0,12.4 -8.6,21.3 -20.5,21.3 -11.9,0 -20.6,-8.9 -20.6,-21.3 0,-12.2 8.6,-21.1 20.6,-21.1 z"
   id="path2610" /> 	<path
   class="st0"
   d="m 450.2,443.6 v -33 h -8.7 V 489 h 8.7 v -10.1 c 4.9,6.8 12.7,11.1 22.3,11.1 15.9,0 27.6,-12.2 27.6,-28.9 0,-16.7 -11.7,-28.8 -27.6,-28.8 -9.6,0.1 -17.4,4.3 -22.3,11.3 z m 20.5,-3.6 c 11.9,0 20.5,8.9 20.5,21.1 0,12.4 -8.5,21.3 -20.5,21.3 -11.9,0 -20.5,-8.9 -20.5,-21.3 0,-12.2 8.5,-21.1 20.5,-21.1 z"
   id="path2612" /> 	<path
   class="st0"
   d="m 584.5,460.8 c 0,-12.8 8,-20.2 21.6,-20.2 v -8.5 c -10.5,0 -18.1,5.3 -21.6,14.8 v -13.5 h -8.7 V 489 h 8.7 z"
   id="path2614" /> </g></g><style
     type="text/css"
     id="style2544"> 	.st0{fill:#00C1D4;} </style></svg>
